<?xml version="1.0" encoding="UTF-8"?><svg xmlns="http://www.w3.org/2000/svg" xmlns:xlink="http://www.w3.org/1999/xlink" fill-opacity="1" color-rendering="auto" color-interpolation="auto" text-rendering="auto" stroke="black" stroke-linecap="square" width="339" stroke-miterlimit="10" shape-rendering="auto" stroke-opacity="1" fill="black" stroke-dasharray="none" font-weight="normal" stroke-width="1" height="307" font-family="'Dialog'" font-style="normal" stroke-linejoin="miter" font-size="12px" stroke-dashoffset="0" image-rendering="auto">
  <!--Generated by ySVG 2.5-->
  <defs id="genericDefs"/>
  <g>
    <defs id="defs1">
      <linearGradient x1="42.71" gradientUnits="userSpaceOnUse" x2="161.29" y1="37" y2="96" id="linearGradient1" spreadMethod="reflect">
        <stop stop-opacity="1" stop-color="rgb(232,238,247)" offset="0%"/>
        <stop stop-opacity="1" stop-color="rgb(183,201,227)" offset="100%"/>
      </linearGradient>
      <linearGradient x1="235.8877" gradientUnits="userSpaceOnUse" x2="345.1123" y1="29" y2="104" id="linearGradient2" spreadMethod="reflect">
        <stop stop-opacity="1" stop-color="rgb(232,238,247)" offset="0%"/>
        <stop stop-opacity="1" stop-color="rgb(183,201,227)" offset="100%"/>
      </linearGradient>
      <linearGradient x1="41.8877" gradientUnits="userSpaceOnUse" x2="153.1123" y1="155" y2="213" id="linearGradient3" spreadMethod="reflect">
        <stop stop-opacity="1" stop-color="rgb(232,238,247)" offset="0%"/>
        <stop stop-opacity="1" stop-color="rgb(183,201,227)" offset="100%"/>
      </linearGradient>
      <linearGradient x1="232.1436" gradientUnits="userSpaceOnUse" x2="349.8564" y1="134" y2="221" id="linearGradient4" spreadMethod="reflect">
        <stop stop-opacity="1" stop-color="rgb(232,238,247)" offset="0%"/>
        <stop stop-opacity="1" stop-color="rgb(183,201,227)" offset="100%"/>
      </linearGradient>
      <linearGradient x1="110.6504" gradientUnits="userSpaceOnUse" x2="274.3496" y1="251" y2="306" id="linearGradient5" spreadMethod="reflect">
        <stop stop-opacity="1" stop-color="rgb(232,238,247)" offset="0%"/>
        <stop stop-opacity="1" stop-color="rgb(183,201,227)" offset="100%"/>
      </linearGradient>
      <clipPath clipPathUnits="userSpaceOnUse" id="clipPath1">
        <path d="M0 0 L339 0 L339 307 L0 307 L0 0 Z"/>
      </clipPath>
      <clipPath clipPathUnits="userSpaceOnUse" id="clipPath2">
        <path d="M26 14 L365 14 L365 321 L26 321 L26 14 Z"/>
      </clipPath>
    </defs>
    <g fill="url(#linearGradient1)" text-rendering="geometricPrecision" shape-rendering="geometricPrecision" transform="matrix(1,0,0,1,-26,-14)" stroke="url(#linearGradient1)">
      <ellipse rx="59.29" ry="29.5" clip-path="url(#clipPath2)" cx="102" cy="66.5" stroke="none"/>
    </g>
    <g text-rendering="geometricPrecision" stroke-miterlimit="1.45" shape-rendering="geometricPrecision" transform="matrix(1,0,0,1,-26,-14)" stroke-linecap="butt">
      <ellipse rx="59.29" fill="none" ry="29.5" clip-path="url(#clipPath2)" cx="102" cy="66.5"/>
      <text x="75.8877" xml:space="preserve" y="63.9688" clip-path="url(#clipPath2)" font-family="sans-serif" stroke="none">This is a </text>
      <text x="62.71" xml:space="preserve" y="78.1016" clip-path="url(#clipPath2)" font-family="sans-serif" stroke="none">Starting Point</text>
    </g>
    <g fill="url(#linearGradient2)" text-rendering="geometricPrecision" shape-rendering="geometricPrecision" transform="matrix(1,0,0,1,-26,-14)" stroke="url(#linearGradient2)">
      <path d="M290.5 29 L345.1123 66.5 L290.5 104 L235.8877 66.5 Z" stroke="none" clip-path="url(#clipPath2)"/>
    </g>
    <g text-rendering="geometricPrecision" stroke-miterlimit="1.45" shape-rendering="geometricPrecision" transform="matrix(1,0,0,1,-26,-14)" stroke-linecap="butt">
      <path fill="none" d="M290.5 29 L345.1123 66.5 L290.5 104 L235.8877 66.5 Z" clip-path="url(#clipPath2)"/>
      <text x="264.3877" xml:space="preserve" y="63.9688" clip-path="url(#clipPath2)" font-family="sans-serif" stroke="none">This is a </text>
      <text x="265.6533" xml:space="preserve" y="78.1016" clip-path="url(#clipPath2)" font-family="sans-serif" stroke="none">Decision</text>
    </g>
    <g fill="url(#linearGradient3)" text-rendering="geometricPrecision" shape-rendering="geometricPrecision" transform="matrix(1,0,0,1,-26,-14)" stroke="url(#linearGradient3)">
      <path d="M56.6777 155 L153.1123 155 L138.3223 213 L41.8877 213 Z" stroke="none" clip-path="url(#clipPath2)"/>
    </g>
    <g text-rendering="geometricPrecision" stroke-miterlimit="1.45" shape-rendering="geometricPrecision" transform="matrix(1,0,0,1,-26,-14)" stroke-linecap="butt">
      <path fill="none" d="M56.6777 155 L153.1123 155 L138.3223 213 L41.8877 213 Z" clip-path="url(#clipPath2)"/>
      <text x="71.3877" xml:space="preserve" y="181.4688" clip-path="url(#clipPath2)" font-family="sans-serif" stroke="none">This is a </text>
      <text x="78.123" xml:space="preserve" y="195.6016" clip-path="url(#clipPath2)" font-family="sans-serif" stroke="none">Datum</text>
    </g>
    <g fill="url(#linearGradient4)" text-rendering="geometricPrecision" shape-rendering="geometricPrecision" transform="matrix(1,0,0,1,-26,-14)" stroke="url(#linearGradient4)">
      <path d="M232.1436 151.4 C235.6749 134 346.3251 134 349.8564 151.4 L349.8564 203.6 C346.3251 221 235.6749 221 232.1436 203.6 Z" stroke="none" clip-path="url(#clipPath2)"/>
    </g>
    <g text-rendering="geometricPrecision" stroke-miterlimit="1.45" shape-rendering="geometricPrecision" transform="matrix(1,0,0,1,-26,-14)" stroke-linecap="butt">
      <path fill="none" d="M232.1436 151.4 C235.6749 134 346.3251 134 349.8564 151.4 L349.8564 203.6 C346.3251 221 235.6749 221 232.1436 203.6 Z" clip-path="url(#clipPath2)"/>
      <path fill="none" d="M349.8564 151.4 C346.3251 168.8 235.6749 168.8 232.1436 151.4" clip-path="url(#clipPath2)"/>
      <text x="289.1016" xml:space="preserve" y="167.9023" clip-path="url(#clipPath2)" font-family="sans-serif" stroke="none"> </text>
      <text x="264.8877" xml:space="preserve" y="182.0352" clip-path="url(#clipPath2)" font-family="sans-serif" stroke="none">This is a </text>
      <text x="264.1436" xml:space="preserve" y="196.168" clip-path="url(#clipPath2)" font-family="sans-serif" stroke="none">Database</text>
    </g>
    <g fill="url(#linearGradient5)" text-rendering="geometricPrecision" shape-rendering="geometricPrecision" transform="matrix(1,0,0,1,-26,-14)" stroke="url(#linearGradient5)">
      <rect x="110.6504" y="251" clip-path="url(#clipPath2)" width="163.6992" rx="27.5" ry="27.5" height="55" stroke="none"/>
    </g>
    <g text-rendering="geometricPrecision" stroke-miterlimit="1.45" shape-rendering="geometricPrecision" transform="matrix(1,0,0,1,-26,-14)" stroke-linecap="butt">
      <rect x="110.6504" y="251" clip-path="url(#clipPath2)" fill="none" width="163.6992" rx="27.5" ry="27.5" height="55"/>
      <text x="162.2891" xml:space="preserve" y="275.9688" clip-path="url(#clipPath2)" font-family="sans-serif" stroke="none">This is the</text>
      <text x="160.1504" xml:space="preserve" y="290.1016" clip-path="url(#clipPath2)" font-family="sans-serif" stroke="none">Terminator</text>
    </g>
  </g>
</svg>
