<?xml version="1.0" encoding="UTF-8"?><svg xmlns="http://www.w3.org/2000/svg" xmlns:xlink="http://www.w3.org/1999/xlink" fill-opacity="1" color-rendering="auto" color-interpolation="auto" text-rendering="auto" stroke="black" stroke-linecap="square" width="793" stroke-miterlimit="10" shape-rendering="auto" stroke-opacity="1" fill="black" stroke-dasharray="none" font-weight="normal" stroke-width="1" height="330" font-family="'Dialog'" font-style="normal" stroke-linejoin="miter" font-size="12px" stroke-dashoffset="0" image-rendering="auto">
  <!--Generated by ySVG 2.5-->
  <defs id="genericDefs"/>
  <g>
    <defs id="defs1">
      <linearGradient x1="47.2021" gradientUnits="userSpaceOnUse" x2="132.7979" y1="100" y2="140" id="linearGradient1" spreadMethod="reflect">
        <stop stop-opacity="1" stop-color="rgb(232,238,247)" offset="0%"/>
        <stop stop-opacity="1" stop-color="rgb(183,201,227)" offset="100%"/>
      </linearGradient>
      <linearGradient x1="436.4551" gradientUnits="userSpaceOnUse" x2="558.209" y1="79" y2="161" id="linearGradient2" spreadMethod="reflect">
        <stop stop-opacity="1" stop-color="rgb(232,238,247)" offset="0%"/>
        <stop stop-opacity="1" stop-color="rgb(183,201,227)" offset="100%"/>
      </linearGradient>
      <linearGradient x1="436.4551" gradientUnits="userSpaceOnUse" x2="558.209" y1="259" y2="341" id="linearGradient3" spreadMethod="reflect">
        <stop stop-opacity="1" stop-color="rgb(232,238,247)" offset="0%"/>
        <stop stop-opacity="1" stop-color="rgb(183,201,227)" offset="100%"/>
      </linearGradient>
      <linearGradient x1="677.7246" gradientUnits="userSpaceOnUse" x2="776.2754" y1="100" y2="140" id="linearGradient4" spreadMethod="reflect">
        <stop stop-opacity="1" stop-color="rgb(232,238,247)" offset="0%"/>
        <stop stop-opacity="1" stop-color="rgb(183,201,227)" offset="100%"/>
      </linearGradient>
      <linearGradient x1="677.7246" gradientUnits="userSpaceOnUse" x2="776.2754" y1="280" y2="320" id="linearGradient5" spreadMethod="reflect">
        <stop stop-opacity="1" stop-color="rgb(232,238,247)" offset="0%"/>
        <stop stop-opacity="1" stop-color="rgb(183,201,227)" offset="100%"/>
      </linearGradient>
      <linearGradient x1="226.9224" gradientUnits="userSpaceOnUse" x2="342.3306" y1="100" y2="140" id="linearGradient6" spreadMethod="reflect">
        <stop stop-opacity="1" stop-color="rgb(232,238,247)" offset="0%"/>
        <stop stop-opacity="1" stop-color="rgb(183,201,227)" offset="100%"/>
      </linearGradient>
      <clipPath clipPathUnits="userSpaceOnUse" id="clipPath1">
        <path d="M0 0 L793 0 L793 330 L0 330 L0 0 Z"/>
      </clipPath>
      <clipPath clipPathUnits="userSpaceOnUse" id="clipPath2">
        <path d="M32 45 L825 45 L825 375 L32 375 L32 45 Z"/>
      </clipPath>
    </defs>
    <g fill="url(#linearGradient1)" text-rendering="geometricPrecision" shape-rendering="geometricPrecision" transform="matrix(1,0,0,1,-32,-45)" stroke="url(#linearGradient1)">
      <ellipse rx="42.7979" ry="20" clip-path="url(#clipPath2)" cx="90" cy="120" stroke="none"/>
    </g>
    <g text-rendering="geometricPrecision" stroke-miterlimit="1.45" shape-rendering="geometricPrecision" transform="matrix(1,0,0,1,-32,-45)" stroke-linecap="butt">
      <ellipse rx="42.7979" fill="none" ry="20" clip-path="url(#clipPath2)" cx="90" cy="120"/>
      <text x="61.4033" xml:space="preserve" y="117.4688" clip-path="url(#clipPath2)" font-family="sans-serif" stroke="none">User Logs</text>
      <text x="54.2021" xml:space="preserve" y="131.6016" clip-path="url(#clipPath2)" font-family="sans-serif" stroke="none">in to System</text>
    </g>
    <g fill="url(#linearGradient2)" text-rendering="geometricPrecision" shape-rendering="geometricPrecision" transform="matrix(1,0,0,1,-32,-45)" stroke="url(#linearGradient2)">
      <path d="M497.332 79 L558.209 120 L497.332 161 L436.4551 120 Z" stroke="none" clip-path="url(#clipPath2)"/>
    </g>
    <g text-rendering="geometricPrecision" stroke-miterlimit="1.45" shape-rendering="geometricPrecision" transform="matrix(1,0,0,1,-32,-45)" stroke-linecap="butt">
      <path fill="none" d="M497.332 79 L558.209 120 L497.332 161 L436.4551 120 Z" clip-path="url(#clipPath2)"/>
      <text x="460.7871" xml:space="preserve" y="124.5352" clip-path="url(#clipPath2)" font-family="sans-serif" stroke="none">Logged Out?</text>
    </g>
    <g fill="url(#linearGradient3)" text-rendering="geometricPrecision" shape-rendering="geometricPrecision" transform="matrix(1,0,0,1,-32,-45)" stroke="url(#linearGradient3)">
      <path d="M497.332 259 L558.209 300 L497.332 341 L436.4551 300 Z" stroke="none" clip-path="url(#clipPath2)"/>
    </g>
    <g text-rendering="geometricPrecision" stroke-miterlimit="1.45" shape-rendering="geometricPrecision" transform="matrix(1,0,0,1,-32,-45)" stroke-linecap="butt">
      <path fill="none" d="M497.332 259 L558.209 300 L497.332 341 L436.4551 300 Z" clip-path="url(#clipPath2)"/>
      <text x="459.9551" xml:space="preserve" y="297.4688" clip-path="url(#clipPath2)" font-family="sans-serif" stroke="none">30min since </text>
      <text x="461.9678" xml:space="preserve" y="311.6016" clip-path="url(#clipPath2)" font-family="sans-serif" stroke="none">last activity?</text>
    </g>
    <g fill="url(#linearGradient4)" text-rendering="geometricPrecision" shape-rendering="geometricPrecision" transform="matrix(1,0,0,1,-32,-45)" stroke="url(#linearGradient4)">
      <path d="M687.9246 100 L776.2754 100 L766.0754 140 L677.7246 140 Z" stroke="none" clip-path="url(#clipPath2)"/>
    </g>
    <g text-rendering="geometricPrecision" stroke-miterlimit="1.45" shape-rendering="geometricPrecision" transform="matrix(1,0,0,1,-32,-45)" stroke-linecap="butt">
      <path fill="none" d="M687.9246 100 L776.2754 100 L766.0754 140 L677.7246 140 Z" clip-path="url(#clipPath2)"/>
      <text x="684.7246" xml:space="preserve" y="124.5352" clip-path="url(#clipPath2)" font-family="sans-serif" stroke="none">End of Session</text>
    </g>
    <g fill="url(#linearGradient5)" text-rendering="geometricPrecision" shape-rendering="geometricPrecision" transform="matrix(1,0,0,1,-32,-45)" stroke="url(#linearGradient5)">
      <path d="M687.9246 280 L776.2754 280 L766.0754 320 L677.7246 320 Z" stroke="none" clip-path="url(#clipPath2)"/>
    </g>
    <g text-rendering="geometricPrecision" stroke-miterlimit="1.45" shape-rendering="geometricPrecision" transform="matrix(1,0,0,1,-32,-45)" stroke-linecap="butt">
      <path fill="none" d="M687.9246 280 L776.2754 280 L766.0754 320 L677.7246 320 Z" clip-path="url(#clipPath2)"/>
      <text x="684.7246" xml:space="preserve" y="304.5352" clip-path="url(#clipPath2)" font-family="sans-serif" stroke="none">End of Session</text>
    </g>
    <g fill="url(#linearGradient6)" text-rendering="geometricPrecision" shape-rendering="geometricPrecision" transform="matrix(1,0,0,1,-32,-45)" stroke="url(#linearGradient6)">
      <path d="M237.1224 100 L342.3306 100 L332.1306 140 L226.9224 140 Z" stroke="none" clip-path="url(#clipPath2)"/>
    </g>
    <g text-rendering="geometricPrecision" stroke-miterlimit="1.45" shape-rendering="geometricPrecision" transform="matrix(1,0,0,1,-32,-45)" stroke-linecap="butt">
      <path fill="none" d="M237.1224 100 L342.3306 100 L332.1306 140 L226.9224 140 Z" clip-path="url(#clipPath2)"/>
      <text x="233.9224" xml:space="preserve" y="124.5352" clip-path="url(#clipPath2)" font-family="sans-serif" stroke="none">Create Session ID</text>
    </g>
    <g text-rendering="geometricPrecision" stroke-miterlimit="1.45" shape-rendering="geometricPrecision" transform="matrix(1,0,0,1,-32,-45)" stroke-linecap="butt">
      <path fill="none" d="M497.332 161.001 L497.332 250.9722" clip-path="url(#clipPath2)"/>
    </g>
    <g text-rendering="geometricPrecision" stroke-miterlimit="1.45" shape-rendering="geometricPrecision" transform="matrix(1,0,0,1,-32,-45)" stroke-linecap="butt">
      <path d="M497.332 258.9722 L502.332 246.9722 L497.332 249.9722 L492.332 246.9722 Z" stroke="none" clip-path="url(#clipPath2)"/>
      <rect x="482.667" y="197.4004" clip-path="url(#clipPath2)" fill="white" width="29.3301" height="25.1992" stroke="none"/>
      <text x="484.667" font-size="18px" y="216.8027" clip-path="url(#clipPath2)" font-family="sans-serif" stroke="none" font-weight="bold" xml:space="preserve">No</text>
      <path fill="none" d="M436.4599 300 L390 300 L390 120 L428.4599 120" clip-path="url(#clipPath2)"/>
      <path d="M436.4599 120 L424.4599 115 L427.4599 120 L424.4599 125 Z" clip-path="url(#clipPath2)" stroke="none"/>
      <rect x="375.335" y="197.4004" clip-path="url(#clipPath2)" fill="white" width="29.3301" height="25.1992" stroke="none"/>
      <text x="377.335" font-size="18px" y="216.8027" clip-path="url(#clipPath2)" font-family="sans-serif" stroke="none" font-weight="bold" xml:space="preserve">No</text>
      <path fill="none" d="M558.1974 120 L674.8624 120" clip-path="url(#clipPath2)"/>
      <path d="M682.8624 120 L670.8624 115 L673.8624 120 L670.8624 125 Z" clip-path="url(#clipPath2)" stroke="none"/>
      <rect x="599.4258" y="107.4004" clip-path="url(#clipPath2)" fill="white" width="37.082" height="25.1992" stroke="none"/>
      <text x="601.4258" font-size="18px" y="126.8027" clip-path="url(#clipPath2)" font-family="sans-serif" stroke="none" font-weight="bold" xml:space="preserve">Yes</text>
      <path fill="none" d="M771.2153 120 L810 120 L810 60 L90 60 L90 91.9902" clip-path="url(#clipPath2)"/>
      <path d="M90 99.9902 L95 87.9902 L90 90.9902 L85 87.9902 Z" clip-path="url(#clipPath2)" stroke="none"/>
      <path fill="none" d="M558.1974 300 L674.8624 300" clip-path="url(#clipPath2)"/>
      <path d="M682.8624 300 L670.8624 295 L673.8624 300 L670.8624 305 Z" clip-path="url(#clipPath2)" stroke="none"/>
      <rect x="599.4258" y="287.4004" clip-path="url(#clipPath2)" fill="white" width="37.082" height="25.1992" stroke="none"/>
      <text x="601.4258" font-size="18px" y="306.8027" clip-path="url(#clipPath2)" font-family="sans-serif" stroke="none" font-weight="bold" xml:space="preserve">Yes</text>
      <path fill="none" d="M771.2153 300 L810 300 L810 360 L90 360 L90 148.0098" clip-path="url(#clipPath2)"/>
      <path d="M90 140.0098 L85 152.0098 L90 149.0098 L95 152.0098 Z" clip-path="url(#clipPath2)" stroke="none"/>
      <path fill="none" d="M132.824 120 L223.9817 120" clip-path="url(#clipPath2)"/>
      <path d="M231.9817 120 L219.9817 115 L222.9817 120 L219.9817 125 Z" clip-path="url(#clipPath2)" stroke="none"/>
      <path fill="none" d="M337.2057 120 L428.4637 120" clip-path="url(#clipPath2)"/>
      <path d="M436.4637 120 L424.4637 115 L427.4637 120 L424.4637 125 Z" clip-path="url(#clipPath2)" stroke="none"/>
    </g>
  </g>
</svg>
